# xmcd
#
# Track frame offsets:
# 150
# 11332
# 24039
# 37592
# 50659
# 62480
# 75620
# 88523
# 100706
# 113977
# 125548
# 138695
# 153257
# 168364
# 181984
# 195578
# 208516
# 221800
# 235326
# 248714
#
# Disc length: 3502 seconds
#
#
# Revision: 0
# Processed by: cddbd v1.5.1PL0 Copyright (c) Steve Scherf et al.
# Submitted via: FreeRIP 2.80 
#
DISCID=fd0dac14
DTITLE=Big Joe Turner - Blues On Central Avenue
DYEAR=1900
DGENRE=Blues
TTITLE0=Blues In To Night
TTITLE1=Sun Risin' Blues
TTITLE2=S K Blues Part 1
TTITLE3=Nobody In Mind
TTITLE4=Blues On Central Avenue
TTITLE5=Iceman
TTITLE6=Cry Baby Blues
TTITLE7=Rebecca
TTITLE8=It's The Same Old Story
TTITLE9=Chewed Up Grass
TTITLE10=Somebody's Got To Go
TTITLE11=Rocks In My Bed
TTITLE12=Little Bittie Gal's Blues
TTITLE13=I Got A Gal (For Every Day Of The Week)
TTITLE14=Johnson And  Turner Blues
TTITLE15=Howlin' Winds
TTITLE16=S K Blues Part 2
TTITLE17=Goin' To Chicago Blues
TTITLE18=Watch That Jive
TTITLE19=Doggin' The Dog
EXTD=
EXTT0=
EXTT1=
EXTT2=
EXTT3=
EXTT4=
EXTT5=
EXTT6=
EXTT7=
EXTT8=
EXTT9=
EXTT10=
EXTT11=
EXTT12=
EXTT13=
EXTT14=
EXTT15=
EXTT16=
EXTT17=
EXTT18=
EXTT19=
PLAYORDER=
